<?xml version="1.0" encoding="iso-8859-1"?>
<!-- Generator: Adobe Illustrator 19.0.0, SVG Export Plug-In . SVG Version: 6.00 Build 0)  -->
<svg version="1.1" id="Capa_1" xmlns="http://www.w3.org/2000/svg" xmlns:xlink="http://www.w3.org/1999/xlink" x="0px" y="0px"
	 viewBox="0 0 433.28 433.28" style="enable-background:new 0 0 433.28 433.28;" xml:space="preserve">
<g>
	<g>
		<path d="M216.64,0C96.993,0,0,96.993,0,216.64s96.993,216.64,216.64,216.64s216.64-96.993,216.64-216.64
			C433.148,97.048,336.232,0.132,216.64,0z M216.64,417.28C105.83,417.28,16,327.45,16,216.64S105.83,16,216.64,16
			s200.64,89.83,200.64,200.64C417.148,327.396,327.396,417.148,216.64,417.28z"/>
	</g>
</g>
<g>
	<g>
		<path d="M256.24,244.48c-4.126-5.861-9.085-11.089-14.72-15.52c-8-6.8-13.52-11.36-18.08-51.52c-1.92-16.8-5.6-33.92-18.32-33.92
			c-12.72,0-20.48,18.24-26,33.76c-0.655,1.168-1.462,2.244-2.4,3.2c-1.903-2.389-3.366-5.098-4.32-8l-1.68-4l-4.24-0.8
			c-2.932-0.506-5.904-0.747-8.88-0.72c-14.42-0.272-28.122,6.282-36.96,17.68c-2.537,1.569-5.505,2.297-8.48,2.08
			c-1.297-0.525-2.681-0.796-4.08-0.8c-8,0-10.56,7.36-12.4,12.16c-3.2,8-5.12,11.04-10.48,11.04
			c-12.515-0.492-24.474,5.189-32,15.2c-6.193,9.666-7.183,21.777-2.64,32.32l1.76,4.56c6.423,14.167,9.907,29.489,10.24,45.04
			c-0.36,10.554,7.904,19.4,18.458,19.76c0.434,0.015,0.868,0.015,1.302,0c16,0,36.88-14.88,49.36-29.6
			c3.019-4.213,7.785-6.831,12.96-7.12c7.982,1.034,15.069,5.621,19.28,12.48c4.56,9.76,31.2,28.96,52.48,28.96
			c4.957,0.057,9.859-1.039,14.32-3.2c15.767-9.358,27.056-24.718,31.28-42.56C266.098,271.274,263.993,256.48,256.24,244.48z
			 M246.4,280.64l-0.08,0.32c-3.201,13.246-11.437,24.725-22.96,32c-2.249,1.059-4.715,1.58-7.2,1.52
			c-14.612-1.863-28.083-8.868-38-19.76c-6.832-12.353-19.441-20.418-33.52-21.44c-9.899,0.24-19.148,4.982-25.12,12.88
			c-12.56,14.8-29.04,24-37.12,24c-2,0-3.44,0-3.76-4.8c-0.465-17.165-4.298-34.072-11.28-49.76l-1.76-4.56
			c-2.769-5.727-2.468-12.463,0.8-17.92c4.59-5.523,11.556-8.5,18.72-8c12.296-0.604,22.675-9.345,25.36-21.36v-1.04
			c6.97,0.217,13.839-1.71,19.68-5.52l1.2-0.8l0.88-1.2c5.903-7.829,15.333-12.183,25.12-11.6h1.92
			c2.799,7.375,9.514,12.543,17.36,13.36c10.24,0,16-10.96,17.04-13.12v-0.8c2.486-7.425,5.871-14.517,10.08-21.12
			c1.736,5.678,2.862,11.524,3.36,17.44c5.04,44.24,12.32,52.4,24,61.92c4.481,3.538,8.416,7.716,11.68,12.4
			C247.775,261.747,249.084,271.55,246.4,280.64z"/>
	</g>
</g>
<g>
	<g>
		<path d="M187.44,336.64l-1.36-2.56l-2.96-1.12c-4.141-1.448-8.493-2.205-12.88-2.24c-5.97-0.152-11.745,2.129-16,6.32
			c-4.62,5.301-6.823,12.287-6.08,19.28c0.56,14,9.2,18.96,16,18.96c8.929-0.725,16.938-5.775,21.44-13.52
			C190.67,354.321,191.372,344.738,187.44,336.64z M172.08,353.2c-1.757,2.99-4.638,5.151-8,6c-0.435-1.15-0.652-2.371-0.64-3.6
			c-0.412-2.644,0.157-5.347,1.6-7.6c1.38-1.024,3.088-1.508,4.8-1.36c1.224-0.106,2.456-0.106,3.68,0
			c0.2,2.292-0.332,4.589-1.52,6.56H172.08z"/>
	</g>
</g>
<g>
	<g>
		<path d="M262.64,106.64c-3.92-10.72-18.8-15.68-28.64-18c-0.638-4.777-2.575-9.288-5.6-13.04c-7.2-8.96-20-13.68-38.16-13.84
			c-9.695-8.492-21.872-13.626-34.72-14.64c-10.958,0.065-21.185,5.508-27.36,14.56c-6.355,6.595-8.235,16.311-4.8,24.8
			c6,12.56,24.96,16,34.32,16.96c5.686,10.513,16.257,17.48,28.16,18.56c4.666-0.051,9.25-1.231,13.36-3.44
			c7.52,6.64,22.4,17.92,37.44,17.92c7.898,0.062,15.421-3.363,20.56-9.36C262.902,121.968,265.034,113.942,262.64,106.64z
			 M245.36,116.64l0-0.24c-2.088,2.577-5.244,4.052-8.56,4c-11.28,0-26-12.64-30.64-17.52c-2.814-2.892-7.342-3.235-10.56-0.8
			c-2.655,2.32-6.001,3.698-9.52,3.92c-9.28,0-16-13.52-16-13.6c-1.272-2.677-3.919-4.432-6.88-4.56c-10.24-0.48-23.12-3.92-25.12-8
			c-0.72-1.6,0.48-4.72,3.2-8c3.164-4.943,8.611-7.952,14.48-8c9.856,1.249,19.052,5.623,26.24,12.48
			c1.516,1.419,3.524,2.194,5.6,2.16h1.52c13.2,0,22.72,2.72,26.8,8c1.841,2.237,2.705,5.119,2.4,8
			c-0.639,4.216,2.141,8.193,6.32,9.04c10.32,1.36,21.68,5.76,22.8,8.8C247.84,112.64,247.68,114,245.36,116.64z"/>
	</g>
</g>
<g>
	<g>
		<path d="M375.12,280.24c-4.32-13.36-11.36-16-16.48-16c-7.714,1.09-14.36,5.992-17.68,13.04
			c-5.577,6.815-11.762,13.107-18.48,18.8h-14.32c-4.418-0.022-8.018,3.542-8.04,7.96c-0.001,0.281,0.012,0.561,0.04,0.84l1.6,15.52
			l-13.92,14c-1.537,1.549-2.376,3.658-2.32,5.84c0.467,11.743,10.365,20.885,22.108,20.418c0.124-0.005,0.248-0.011,0.372-0.018
			c4.097-0.068,8.164-0.715,12.08-1.92c0.923-0.269,1.791-0.703,2.56-1.28C333.04,349.44,384.4,308.88,375.12,280.24z
			 M314.16,343.84c-2.01,0.542-4.079,0.837-6.16,0.88c-2.206,0.254-4.386-0.655-5.76-2.4l13.6-13.68
			c1.711-1.7,2.563-4.081,2.32-6.48l-1.12-10.48h8.48c1.945-0.003,3.822-0.714,5.28-2c8.772-7.221,16.787-15.316,23.92-24.16
			l-0.08-0.24c0.957-1.585,2.083-3.06,3.36-4.4c0.775,1.394,1.392,2.87,1.84,4.4C364,298.16,335.84,327.44,314.16,343.84z"/>
	</g>
</g>
<g>
</g>
<g>
</g>
<g>
</g>
<g>
</g>
<g>
</g>
<g>
</g>
<g>
</g>
<g>
</g>
<g>
</g>
<g>
</g>
<g>
</g>
<g>
</g>
<g>
</g>
<g>
</g>
<g>
</g>
</svg>
